<svg width="61" height="63" viewBox="0 0 61 63" fill="none" xmlns="http://www.w3.org/2000/svg">
<g opacity="0.3">
<path d="M11.1189 38.2994C12.183 37.0295 14.0752 36.8627 15.3451 37.9269L23.6462 44.883C24.9161 45.9472 25.0829 47.8394 24.0187 49.1093L17.7927 56.539C16.0433 58.6267 12.6414 57.4906 12.4975 54.7706L12.418 53.2676C12.3261 51.5303 10.7806 50.2352 9.05412 50.4487L7.5603 50.6333C4.85713 50.9675 3.14341 47.8168 4.89284 45.7291L11.1189 38.2994Z" fill="#C7C7C7"/>
<path d="M49.8268 38.2994C48.7626 37.0295 46.8704 36.8627 45.6005 37.9269L37.2994 44.883C36.0295 45.9472 35.8627 47.8394 36.9269 49.1093L43.1529 56.539C44.9023 58.6267 48.3042 57.4906 48.4481 54.7706L48.5276 53.2676C48.6195 51.5303 50.165 50.2352 51.8915 50.4487L53.3853 50.6333C56.0885 50.9675 57.8022 47.8168 56.0528 45.7291L49.8268 38.2994Z" fill="#C7C7C7"/>
<circle cx="30.5" cy="26.5" r="26.5" fill="#DCDCDC"/>
<circle cx="30.5" cy="26.5" r="20.5" fill="#EDEDED"/>
<path d="M27.6468 11.7811C28.5449 9.01722 32.4551 9.01722 33.3532 11.7812L35.1025 17.1652C35.5042 18.4012 36.656 19.2381 37.9557 19.2381H43.6168C46.523 19.2381 47.7313 22.9569 45.3801 24.6651L40.8002 27.9926C39.7488 28.7566 39.3088 30.1107 39.7104 31.3467L41.4598 36.7308C42.3578 39.4947 39.1944 41.7931 36.8433 40.0849L32.2634 36.7574C31.2119 35.9934 29.7881 35.9934 28.7366 36.7574L24.1567 40.0849C21.8056 41.7931 18.6422 39.4947 19.5402 36.7307L21.2896 31.3467C21.6912 30.1107 21.2512 28.7566 20.1998 27.9926L15.6199 24.6651C13.2687 22.9569 14.4771 19.2381 17.3832 19.2381H23.0443C24.344 19.2381 25.4958 18.4012 25.8975 17.1652L27.6468 11.7811Z" fill="#FFFCF4"/>
</g>
</svg>
